<svg width="92" height="16" viewBox="0 0 92 16" fill="none" xmlns="http://www.w3.org/2000/svg">
<path d="M17.5497 0.00087738L14.8248 12.4045L11.7852 0.00087738H8.56853L5.52904 12.4045L2.8041 0.00087738H-0.000114441L3.85011 15.2127H7.12143L10.1769 2.80894L13.2324 15.2127H16.5037L20.3538 0.00087738H17.5497Z" fill="black"/>
<path d="M26.6686 9.20685H24.0018L26.6686 1.95054L29.3355 9.20685H26.6686ZM28.2842 0.00087738H25.053L19.1011 15.2127H21.8994L23.2768 11.3882H26.6686H30.0606L31.4378 15.2127H34.2362L28.2842 0.00087738Z" fill="black"/>
<path d="M36.0566 0.00087738V15.2127H47.6935V12.7563H38.6641V0.00087738H36.0566Z" fill="black"/>
<path d="M55.6839 12.7178H52.6511V2.45804L55.6839 2.45161C60.3301 2.45161 60.9161 5.70845 60.9161 7.60642C60.9161 9.50417 60.3301 12.7178 55.6839 12.7178ZM55.6839 0.00087738H50.0643V15.2127H55.6839C60.2511 15.2127 63.5096 12.0844 63.5096 7.60674C63.5096 3.12916 60.2511 0.00087738 55.6839 0.00087738Z" fill="black"/>
<path d="M77.0124 2.45687V0.00087738H65.4064V15.2127H77.0124V12.7566H67.9844V8.77771H75.9603V7.60674V6.43566H67.9844V2.45687H77.0124Z" fill="black"/>
<path d="M81.8411 0.00087738H79.2712V15.2127H81.8411V2.57988L89.4298 15.2127H91.9994V0.00087738H89.3916V10.5065L83.0761 0.00087738H81.8411Z" fill="black"/>
</svg>
